<svg xmlns="http://www.w3.org/2000/svg" width="720" height="1080" viewBox="0 0 720 1080" role="img" aria-label="Valencia 地区 中国直发长期供应">
  <defs>
    <linearGradient id="bg" x1="0" x2="0" y1="0" y2="1">
      <stop offset="0" stop-color="#fff2b8"/>
      <stop offset="0.52" stop-color="#ffe39a"/>
      <stop offset="1" stop-color="#f7c75d"/>
    </linearGradient>
    <linearGradient id="blue" x1="0" x2="1" y1="0" y2="1">
      <stop offset="0" stop-color="#1f75bc"/>
      <stop offset="1" stop-color="#074b8f"/>
    </linearGradient>
  </defs>
  <rect width="720" height="1080" fill="url(#bg)"/>
  <circle cx="86" cy="120" r="160" fill="#fff8d7" opacity=".55"/>
  <circle cx="650" cy="245" r="170" fill="#fff8d7" opacity=".45"/>
  <text x="360" y="126" text-anchor="middle" font-family="Arial, sans-serif" font-size="80" font-weight="900" fill="#064b8e">Valencia 地区</text>
  <text x="360" y="195" text-anchor="middle" font-family="Arial, sans-serif" font-size="42" font-weight="800" fill="#083f73">中国直发 长期供应</text>
  <rect x="78" y="245" width="564" height="360" rx="34" fill="#d9f2ff" stroke="#fff" stroke-width="5"/>
  <g font-family="Arial, sans-serif" font-size="30" font-weight="800" fill="#fff">
    <g fill="url(#blue)">
      <rect x="118" y="285" width="145" height="54" rx="22"/><rect x="288" y="285" width="145" height="54" rx="22"/><rect x="458" y="285" width="145" height="54" rx="22"/>
      <rect x="118" y="365" width="145" height="54" rx="22"/><rect x="288" y="365" width="145" height="54" rx="22"/><rect x="458" y="365" width="145" height="54" rx="22"/>
      <rect x="118" y="445" width="145" height="54" rx="22"/><rect x="288" y="445" width="145" height="54" rx="22"/><rect x="458" y="445" width="145" height="54" rx="22"/>
      <rect x="118" y="525" width="145" height="54" rx="22"/><rect x="288" y="525" width="145" height="54" rx="22"/><rect x="458" y="525" width="145" height="54" rx="22"/>
    </g>
    <text x="190" y="322" text-anchor="middle">厨房系列</text><text x="360" y="322" text-anchor="middle">卫浴系列</text><text x="530" y="322" text-anchor="middle">文具系列</text>
    <text x="190" y="402" text-anchor="middle">收纳系列</text><text x="360" y="402" text-anchor="middle">清洁系列</text><text x="530" y="402" text-anchor="middle">家居系列</text>
    <text x="190" y="482" text-anchor="middle">汽车系列</text><text x="360" y="482" text-anchor="middle">五金系列</text><text x="530" y="482" text-anchor="middle">体育系列</text>
    <text x="190" y="562" text-anchor="middle">健身系列</text><text x="360" y="562" text-anchor="middle">宠物系列</text><text x="530" y="562" text-anchor="middle">生日系列</text>
  </g>
  <text x="360" y="688" text-anchor="middle" font-family="Arial, sans-serif" font-size="54" font-weight="900" fill="#083f73">价格优惠 质量无忧</text>
  <text x="360" y="765" text-anchor="middle" font-family="Arial, sans-serif" font-size="62" font-weight="900" fill="#c6151e">满6000起发 75天到货</text>
  <rect x="58" y="820" width="604" height="160" rx="28" fill="#fffaf1" stroke="#fff" stroke-width="5"/>
  <rect x="92" y="850" width="120" height="100" rx="18" fill="#ffe18a"/>
  <text x="152" y="914" text-anchor="middle" font-family="Arial, sans-serif" font-size="52" font-weight="900" fill="#bd7a00">货</text>
  <text x="250" y="884" font-family="Arial, sans-serif" font-size="42" font-weight="900" fill="#111">陈坚</text>
  <text x="250" y="934" font-family="Arial, sans-serif" font-size="30" fill="#555">微信 ID：Cj616550166</text>
  <text x="250" y="968" font-family="Arial, sans-serif" font-size="26" fill="#555">地区：西班牙 Madrid / Valencia</text>
  <rect x="0" y="1006" width="720" height="74" fill="#07549c"/>
  <text x="360" y="1054" text-anchor="middle" font-family="Arial, sans-serif" font-size="28" font-weight="800" fill="#fff">正品保障 · 高效物流 · 售后无忧 · 长期合作</text>
</svg>
